<svg xmlns="http://www.w3.org/2000/svg" width="512" height="512" viewBox="0 0 512 512" version="1.1"><path d="M 103.388 96.975 C 102.227 97.447, 100.314 99.057, 99.138 100.552 C 97.120 103.117, 97 104.365, 97 122.712 L 97 142.154 99.923 145.077 L 102.846 148 250.867 148 L 398.888 148 401.694 145.589 L 404.500 143.177 404.808 123.169 L 405.115 103.160 402.140 99.830 L 399.164 96.500 252.332 96.308 C 171.574 96.203, 104.550 96.503, 103.388 96.975" stroke="none" fill="#3c6382" fill-rule="evenodd"/><path d="M 330.400 189.400 L 327 192.800 327 268.966 C 327 323.093, 327.323 345.763, 328.117 347.316 C 331.019 352.990, 330.778 352.954, 365.816 352.978 C 386.111 352.992, 398.847 352.617, 400.055 351.970 C 405.079 349.282, 405 350.590, 405 269.597 C 405 213.189, 404.698 193.431, 403.805 191.472 C 401.418 186.232, 399.790 186, 365.450 186 L 333.800 186 330.400 189.400" stroke="none" fill="#82ccdd" fill-rule="evenodd"/><path d="M 217.110 187.396 C 211.899 190.284, 212.073 186.994, 212.035 282.850 L 212 372.200 215.440 375.640 L 218.879 379.079 251.418 378.790 L 283.957 378.500 286.729 375.727 L 289.500 372.955 289.500 282.395 L 289.500 191.836 286.234 188.918 L 282.968 186 251.234 186.035 C 226.817 186.063, 218.949 186.376, 217.110 187.396" stroke="none" fill="#38ada9" fill-rule="evenodd"/><path d="M 99.923 188.923 L 97 191.846 97 295 L 97 398.154 99.923 401.077 L 102.846 404 135.787 404 L 168.727 404 171.316 401.412 C 172.910 399.817, 174.133 397.225, 174.499 394.662 C 174.827 392.373, 174.961 345.800, 174.797 291.168 L 174.500 191.835 171.234 188.918 L 167.968 186 135.407 186 L 102.846 186 99.923 188.923" stroke="none" fill="#0a3d62" fill-rule="evenodd"/></svg>